<svg xmlns="http://www.w3.org/2000/svg" xmlns:xlink="http://www.w3.org/1999/xlink" width="500" zoomAndPan="magnify" viewBox="0 0 375 374.999991" height="500" preserveAspectRatio="xMidYMid meet" version="1.0"><defs><g/><clipPath id="0cb76bee95"><path d="M 6.050781 6.050781 L 369 6.050781 L 369 369 L 6.050781 369 Z M 6.050781 6.050781 " clip-rule="nonzero"/></clipPath><clipPath id="743babebf8"><path d="M 97 102.613281 L 278 102.613281 L 278 261.613281 L 97 261.613281 Z M 97 102.613281 " clip-rule="nonzero"/></clipPath></defs><g clip-path="url(#0cb76bee95)"><path fill="#5271ff" d="M 187.496094 6.050781 C 87.386719 6.050781 6.050781 87.386719 6.050781 187.496094 C 6.050781 287.609375 87.386719 368.945312 187.496094 368.945312 C 287.609375 368.945312 368.945312 287.609375 368.945312 187.496094 C 368.945312 87.386719 287.609375 6.050781 187.496094 6.050781 Z M 187.496094 13.9375 C 283.449219 13.9375 361.054688 91.542969 361.054688 187.496094 C 361.054688 283.449219 283.449219 361.054688 187.496094 361.054688 C 91.542969 361.054688 13.9375 283.449219 13.9375 187.496094 C 13.9375 91.542969 91.542969 13.9375 187.496094 13.9375 Z M 187.496094 13.9375 " fill-opacity="1" fill-rule="nonzero"/></g><path fill="#5271ff" d="M 240.523438 149.878906 L 234.4375 143.792969 L 231.578125 146.648438 L 237.664062 152.738281 L 240.523438 149.878906 " fill-opacity="1" fill-rule="nonzero"/><path fill="#5271ff" d="M 174.828125 164.230469 L 174.570312 160.191406 L 165.980469 160.738281 L 166.242188 164.777344 L 174.828125 164.230469 " fill-opacity="1" fill-rule="nonzero"/><path fill="#5271ff" d="M 150.511719 167.605469 L 150.253906 163.566406 L 141.664062 164.117188 L 141.921875 168.15625 L 150.511719 167.605469 " fill-opacity="1" fill-rule="nonzero"/><path fill="#5271ff" d="M 219.28125 166.300781 L 226.871094 162.234375 L 224.960938 158.667969 L 217.371094 162.734375 L 219.28125 166.300781 " fill-opacity="1" fill-rule="nonzero"/><path fill="#5271ff" d="M 224.863281 139.988281 L 224.164062 136 L 215.6875 137.488281 L 216.382812 141.472656 L 224.863281 139.988281 " fill-opacity="1" fill-rule="nonzero"/><path fill="#5271ff" d="M 252.085938 163.28125 L 243.613281 161.769531 L 242.902344 165.753906 L 251.378906 167.265625 L 252.085938 163.28125 " fill-opacity="1" fill-rule="nonzero"/><path fill="#5271ff" d="M 199.488281 163.941406 L 191.3125 161.25 L 190.050781 165.09375 L 198.226562 167.78125 L 199.488281 163.941406 " fill-opacity="1" fill-rule="nonzero"/><g clip-path="url(#743babebf8)"><path fill="#5271ff" d="M 105.367188 253.292969 L 105.367188 236.6875 L 269.679688 236.6875 L 269.679688 253.292969 Z M 105.367188 206.707031 L 105.367188 189.871094 L 269.679688 189.871094 L 269.679688 206.707031 Z M 105.367188 229.941406 L 105.367188 213.453125 L 269.679688 213.453125 L 269.679688 229.941406 Z M 173.351562 149.78125 C 176.980469 155.359375 183.265625 159.0625 190.402344 159.0625 C 201.609375 159.0625 210.730469 149.945312 210.730469 138.734375 C 210.730469 137.328125 210.582031 135.949219 210.308594 134.625 L 228.832031 127.023438 L 269.679688 176.398438 L 269.679688 185.148438 L 105.367188 185.148438 L 105.367188 177.660156 Z M 187.128906 125.570312 C 187.125 126.585938 187.152344 127.605469 187.222656 128.621094 C 187.304688 129.871094 188.339844 130.828125 189.574219 130.828125 C 189.628906 130.828125 189.679688 130.824219 189.734375 130.820312 C 191.035156 130.734375 192.019531 129.609375 191.933594 128.308594 C 191.863281 127.292969 191.84375 126.265625 191.859375 125.234375 C 198.667969 125.964844 203.984375 131.742188 203.984375 138.734375 C 203.984375 146.226562 197.890625 152.316406 190.402344 152.316406 C 182.914062 152.316406 176.820312 146.226562 176.820312 138.734375 C 176.820312 132.378906 181.21875 127.042969 187.128906 125.570312 Z M 276.847656 172.363281 L 233.167969 119.570312 C 232.042969 118.207031 230.15625 117.734375 228.515625 118.40625 L 207.113281 127.1875 C 203.824219 122.441406 198.574219 119.160156 192.542969 118.523438 C 193.332031 114.328125 194.785156 110.207031 196.84375 106.417969 C 197.464844 105.269531 197.042969 103.839844 195.894531 103.214844 C 194.75 102.59375 193.316406 103.015625 192.695312 104.164062 C 190.210938 108.734375 188.542969 113.613281 187.71875 118.59375 C 177.777344 119.910156 170.078125 128.4375 170.078125 138.734375 C 170.078125 139.933594 170.1875 141.105469 170.386719 142.246094 L 99.785156 171.199219 C 98.265625 171.824219 97.273438 173.300781 97.273438 174.941406 L 97.273438 257.339844 C 97.273438 259.578125 99.085938 261.386719 101.320312 261.386719 L 273.726562 261.386719 C 275.960938 261.386719 277.773438 259.578125 277.773438 257.339844 L 277.773438 174.941406 C 277.773438 174.003906 277.445312 173.089844 276.847656 172.363281 " fill-opacity="1" fill-rule="nonzero"/></g><path fill="#5271ff" d="M 131.488281 178.289062 L 247.496094 178.289062 C 248.429688 178.289062 249.183594 177.53125 249.183594 176.601562 C 249.183594 175.667969 248.429688 174.917969 247.496094 174.917969 L 131.488281 174.917969 C 130.558594 174.917969 129.800781 175.667969 129.800781 176.601562 C 129.800781 177.53125 130.558594 178.289062 131.488281 178.289062 " fill-opacity="1" fill-rule="nonzero"/><g fill="#ffffff" fill-opacity="1"><g transform="translate(79.173218, 111.18189)"><g><path d="M 2.234375 -13.390625 L 7.265625 -9.578125 L 4.28125 -5.65625 L -0.640625 -9.390625 L -15.65625 -11.703125 L -12.65625 -15.65625 L -3.015625 -14.28125 L -7.015625 -23.09375 L -4.015625 -27.046875 Z M 2.234375 -13.390625 "/></g></g></g><g fill="#ffffff" fill-opacity="1"><g transform="translate(94.821007, 91.425488)"><g><path d="M 1.890625 -27.578125 L 9.34375 -19.03125 C 11.039062 -17.082031 11.78125 -15.007812 11.5625 -12.8125 C 11.351562 -10.625 10.21875 -8.628906 8.15625 -6.828125 C 6.070312 -5.003906 3.921875 -4.128906 1.703125 -4.203125 C -0.515625 -4.285156 -2.472656 -5.300781 -4.171875 -7.25 L -11.625 -15.796875 L -7.875 -19.0625 L -0.421875 -10.515625 C 0.429688 -9.523438 1.394531 -8.988281 2.46875 -8.90625 C 3.539062 -8.820312 4.535156 -9.179688 5.453125 -9.984375 C 6.347656 -10.765625 6.816406 -11.679688 6.859375 -12.734375 C 6.898438 -13.785156 6.488281 -14.804688 5.625 -15.796875 L -1.828125 -24.34375 Z M 1.890625 -27.578125 "/></g></g></g><g fill="#ffffff" fill-opacity="1"><g transform="translate(115.581241, 73.90534)"><g><path d="M 20.671875 -11.015625 L 16.8125 -8.96875 L 10.796875 -20.15625 L 11.71875 -8.46875 L 8.859375 -6.9375 L -0.34375 -14.203125 L 5.640625 -3 L 1.71875 -0.921875 L -7.5 -18.203125 L -2.6875 -20.765625 L 7.46875 -12.984375 L 6.671875 -25.765625 L 11.453125 -28.296875 Z M 20.671875 -11.015625 "/></g></g></g><g fill="#ffffff" fill-opacity="1"><g transform="translate(143.472013, 59.835419)"><g><path d="M 22.703125 -5.734375 L 18.46875 -4.671875 L 15.328125 -16.96875 L 13.40625 -5.40625 L 10.25 -4.609375 L 3.09375 -13.875 L 6.203125 -1.5625 L 1.890625 -0.484375 L -2.90625 -19.46875 L 2.390625 -20.796875 L 10.375 -10.8125 L 12.671875 -23.390625 L 17.90625 -24.71875 Z M 22.703125 -5.734375 "/></g></g></g><g fill="#ffffff" fill-opacity="1"><g transform="translate(174.17741, 53.128667)"><g><path d="M 11.859375 -6.640625 L 12.03125 -0.328125 L 7.09375 -0.203125 L 6.921875 -6.375 L -0.6875 -19.546875 L 4.28125 -19.6875 L 9.234375 -11.296875 L 13.609375 -19.9375 L 18.578125 -20.078125 Z M 11.859375 -6.640625 "/></g></g></g><g fill="#ffffff" fill-opacity="1"><g transform="translate(199.880732, 53.396019)"><g/></g></g><g fill="#ffffff" fill-opacity="1"><g transform="translate(213.031833, 55.070534)"><g><path d="M 13.296875 -2.8125 L 11.578125 3.265625 L 6.828125 1.921875 L 8.5 -4.015625 L 5.171875 -18.84375 L 9.953125 -17.5 L 12.1875 -8.015625 L 18.9375 -14.96875 L 23.71875 -13.609375 Z M 13.296875 -2.8125 "/></g></g></g><g fill="#ffffff" fill-opacity="1"><g transform="translate(237.1299, 62.407224)"><g><path d="M 14.921875 3.703125 L 7.34375 -0.25 L 4.40625 2.296875 L -0.125 -0.0625 L 16.40625 -13.484375 L 20.9375 -11.125 L 19.1875 10 L 14.484375 7.546875 Z M 15.359375 -0.296875 L 16.21875 -8.015625 L 10.359375 -2.90625 Z M 15.359375 -0.296875 "/></g></g></g><g fill="#ffffff" fill-opacity="1"><g transform="translate(261.282653, 75.529854)"><g><path d="M 17.765625 15.25 L 14.453125 12.40625 L 22.703125 2.75 L 12.140625 7.84375 L 9.671875 5.734375 L 13.125 -5.484375 L 4.84375 4.15625 L 1.484375 1.265625 L 14.234375 -13.59375 L 18.375 -10.03125 L 14.8125 2.265625 L 26.421875 -3.125 L 30.515625 0.390625 Z M 17.765625 15.25 "/></g></g></g><g fill="#ffffff" fill-opacity="1"><g transform="translate(284.453251, 96.81226)"><g><path d="M 21.484375 -4.328125 C 23.234375 -1.992188 24.195312 0.492188 24.375 3.140625 L 20.15625 3.96875 C 20.019531 2.789062 19.75 1.617188 19.34375 0.453125 C 18.945312 -0.703125 18.503906 -1.601562 18.015625 -2.25 C 17.148438 -3.394531 16.335938 -3.6875 15.578125 -3.125 C 15.085938 -2.75 14.90625 -2.164062 15.03125 -1.375 C 15.164062 -0.582031 15.425781 0.296875 15.8125 1.265625 C 16.207031 2.242188 16.5625 3.25 16.875 4.28125 C 17.1875 5.320312 17.210938 6.382812 16.953125 7.46875 C 16.703125 8.550781 16.054688 9.484375 15.015625 10.265625 C 13.515625 11.398438 11.894531 11.695312 10.15625 11.15625 C 8.425781 10.613281 6.878906 9.4375 5.515625 7.625 C 4.546875 6.332031 3.804688 4.882812 3.296875 3.28125 C 2.796875 1.675781 2.578125 0.113281 2.640625 -1.40625 L 6.875 -2.15625 C 6.769531 -0.863281 6.898438 0.476562 7.265625 1.875 C 7.640625 3.28125 8.144531 4.398438 8.78125 5.234375 C 9.257812 5.878906 9.742188 6.289062 10.234375 6.46875 C 10.734375 6.644531 11.207031 6.566406 11.65625 6.234375 C 12.082031 5.910156 12.285156 5.4375 12.265625 4.8125 C 12.253906 4.1875 12.085938 3.519531 11.765625 2.8125 C 11.453125 2.101562 11.144531 1.296875 10.84375 0.390625 C 10.550781 -0.503906 10.316406 -1.359375 10.140625 -2.171875 C 9.960938 -2.992188 10.023438 -3.84375 10.328125 -4.71875 C 10.628906 -5.601562 11.210938 -6.367188 12.078125 -7.015625 C 13.515625 -8.097656 15.085938 -8.390625 16.796875 -7.890625 C 18.503906 -7.390625 20.066406 -6.203125 21.484375 -4.328125 Z M 21.484375 -4.328125 "/></g></g></g><g fill="#ffffff" fill-opacity="1"><g transform="translate(77.869872, 293.9814)"><g><path d="M 13.03125 -4.65625 C 14.34375 -3.363281 15.171875 -1.898438 15.515625 -0.265625 L 12.96875 0.65625 C 12.769531 -0.0625 12.488281 -0.769531 12.125 -1.46875 C 11.769531 -2.175781 11.414062 -2.703125 11.0625 -3.046875 C 10.414062 -3.691406 9.878906 -3.796875 9.453125 -3.359375 C 9.179688 -3.085938 9.125 -2.707031 9.28125 -2.21875 C 9.4375 -1.738281 9.679688 -1.210938 10.015625 -0.640625 C 10.359375 -0.078125 10.671875 0.515625 10.953125 1.140625 C 11.234375 1.765625 11.34375 2.425781 11.28125 3.125 C 11.21875 3.820312 10.894531 4.460938 10.3125 5.046875 C 9.476562 5.890625 8.492188 6.222656 7.359375 6.046875 C 6.234375 5.867188 5.160156 5.269531 4.140625 4.25 C 3.410156 3.53125 2.816406 2.691406 2.359375 1.734375 C 1.898438 0.785156 1.617188 -0.164062 1.515625 -1.125 L 4.09375 -1.984375 C 4.15625 -1.160156 4.363281 -0.328125 4.71875 0.515625 C 5.082031 1.359375 5.5 2.015625 5.96875 2.484375 C 6.320312 2.828125 6.660156 3.03125 6.984375 3.09375 C 7.316406 3.164062 7.609375 3.078125 7.859375 2.828125 C 8.097656 2.585938 8.179688 2.273438 8.109375 1.890625 C 8.046875 1.503906 7.878906 1.101562 7.609375 0.6875 C 7.347656 0.269531 7.082031 -0.203125 6.8125 -0.734375 C 6.550781 -1.273438 6.328125 -1.796875 6.140625 -2.296875 C 5.953125 -2.796875 5.914062 -3.328125 6.03125 -3.890625 C 6.144531 -4.460938 6.441406 -4.992188 6.921875 -5.484375 C 7.710938 -6.273438 8.664062 -6.597656 9.78125 -6.453125 C 10.894531 -6.304688 11.976562 -5.707031 13.03125 -4.65625 Z M 13.03125 -4.65625 "/></g></g></g><g fill="#ffffff" fill-opacity="1"><g transform="translate(90.921837, 306.599416)"><g><path d="M 12.1875 8.953125 L 9.578125 7.046875 L 12.78125 -1.1875 L 5.859375 4.296875 L 3.234375 2.375 L 7.296875 -9.96875 L 10 -7.984375 L 6.578125 0.78125 L 13.84375 -5.15625 L 16.328125 -3.328125 L 12.890625 5.421875 L 20.1875 -0.484375 L 22.78125 1.40625 Z M 12.1875 8.953125 "/></g></g></g><g fill="#ffffff" fill-opacity="1"><g transform="translate(112.193678, 321.270785)"><g><path d="M 14.25 -3.65625 L 8.46875 -6.703125 L 7.328125 -4.53125 L 12.53125 -1.78125 L 11.390625 0.40625 L 6.1875 -2.34375 L 5.03125 -0.15625 L 10.96875 2.984375 L 9.8125 5.171875 L 1.09375 0.578125 L 6.84375 -10.34375 L 15.40625 -5.84375 Z M 14.25 -3.65625 "/></g></g></g><g fill="#ffffff" fill-opacity="1"><g transform="translate(128.772673, 329.536638)"><g><path d="M 13.6875 -5.390625 L 7.578125 -7.6875 L 6.71875 -5.390625 L 12.234375 -3.3125 L 11.359375 -1.015625 L 5.84375 -3.09375 L 4.96875 -0.765625 L 11.25 1.609375 L 10.375 3.921875 L 1.15625 0.4375 L 5.515625 -11.109375 L 14.5625 -7.703125 Z M 13.6875 -5.390625 "/></g></g></g><g fill="#ffffff" fill-opacity="1"><g transform="translate(146.228948, 335.664444)"><g><path d="M 12.703125 -7 L 9.09375 -7.890625 L 6.75 1.65625 L 3.703125 0.90625 L 6.046875 -8.640625 L 2.46875 -9.515625 L 3.078125 -11.96875 L 13.3125 -9.453125 Z M 12.703125 -7 "/></g></g></g><g fill="#ffffff" fill-opacity="1"><g transform="translate(163.193409, 339.445514)"><g><path d="M 7.46875 -11.65625 C 9.300781 -11.4375 10.851562 -10.785156 12.125 -9.703125 L 10.65625 -7.40625 C 10.0625 -7.863281 9.410156 -8.253906 8.703125 -8.578125 C 7.992188 -8.910156 7.390625 -9.109375 6.890625 -9.171875 C 5.992188 -9.285156 5.507812 -9.046875 5.4375 -8.453125 C 5.382812 -8.066406 5.566406 -7.726562 5.984375 -7.4375 C 6.398438 -7.144531 6.914062 -6.875 7.53125 -6.625 C 8.144531 -6.382812 8.753906 -6.101562 9.359375 -5.78125 C 9.960938 -5.46875 10.453125 -5.015625 10.828125 -4.421875 C 11.210938 -3.835938 11.359375 -3.132812 11.265625 -2.3125 C 11.117188 -1.132812 10.539062 -0.273438 9.53125 0.265625 C 8.519531 0.816406 7.300781 1.003906 5.875 0.828125 C 4.863281 0.703125 3.878906 0.40625 2.921875 -0.0625 C 1.972656 -0.539062 1.175781 -1.128906 0.53125 -1.828125 L 2.03125 -4.0625 C 2.582031 -3.445312 3.257812 -2.914062 4.0625 -2.46875 C 4.863281 -2.03125 5.585938 -1.769531 6.234375 -1.6875 C 6.734375 -1.625 7.128906 -1.664062 7.421875 -1.8125 C 7.722656 -1.96875 7.898438 -2.21875 7.953125 -2.5625 C 7.984375 -2.894531 7.851562 -3.191406 7.5625 -3.453125 C 7.28125 -3.722656 6.910156 -3.945312 6.453125 -4.125 C 5.992188 -4.300781 5.488281 -4.515625 4.9375 -4.765625 C 4.394531 -5.015625 3.898438 -5.28125 3.453125 -5.5625 C 3.003906 -5.84375 2.648438 -6.242188 2.390625 -6.765625 C 2.128906 -7.296875 2.039062 -7.898438 2.125 -8.578125 C 2.257812 -9.691406 2.8125 -10.53125 3.78125 -11.09375 C 4.757812 -11.65625 5.988281 -11.84375 7.46875 -11.65625 Z M 7.46875 -11.65625 "/></g></g></g><g fill="#ffffff" fill-opacity="1"><g transform="translate(180.928668, 341.148274)"><g/></g></g><g fill="#ffffff" fill-opacity="1"><g transform="translate(191.508119, 341.319875)"><g><path d="M 10.421875 -0.1875 L 8.578125 -1.78125 C 7.597656 -0.832031 6.460938 -0.3125 5.171875 -0.21875 C 3.960938 -0.132812 2.9375 -0.398438 2.09375 -1.015625 C 1.257812 -1.640625 0.804688 -2.46875 0.734375 -3.5 C 0.679688 -4.257812 0.851562 -4.910156 1.25 -5.453125 C 1.65625 -5.992188 2.21875 -6.5 2.9375 -6.96875 C 2.175781 -7.914062 1.769531 -8.820312 1.71875 -9.6875 C 1.644531 -10.582031 1.90625 -11.316406 2.5 -11.890625 C 3.101562 -12.460938 3.941406 -12.785156 5.015625 -12.859375 C 6.054688 -12.929688 6.921875 -12.734375 7.609375 -12.265625 C 8.304688 -11.796875 8.6875 -11.15625 8.75 -10.34375 C 8.800781 -9.582031 8.585938 -8.925781 8.109375 -8.375 C 7.640625 -7.832031 6.960938 -7.296875 6.078125 -6.765625 C 6.742188 -6.128906 7.441406 -5.5 8.171875 -4.875 C 8.472656 -5.488281 8.703125 -6.171875 8.859375 -6.921875 L 10.875 -5.671875 C 10.632812 -4.847656 10.3125 -4.097656 9.90625 -3.421875 L 11.859375 -1.796875 Z M 4.09375 -9.84375 C 4.125 -9.320312 4.367188 -8.753906 4.828125 -8.140625 C 5.898438 -8.804688 6.414062 -9.476562 6.375 -10.15625 C 6.351562 -10.46875 6.226562 -10.71875 6 -10.90625 C 5.78125 -11.101562 5.503906 -11.1875 5.171875 -11.15625 C 4.804688 -11.132812 4.523438 -11 4.328125 -10.75 C 4.140625 -10.5 4.0625 -10.195312 4.09375 -9.84375 Z M 5.140625 -2.375 C 5.773438 -2.414062 6.367188 -2.6875 6.921875 -3.1875 C 5.585938 -4.320312 4.6875 -5.128906 4.21875 -5.609375 C 3.488281 -5.035156 3.144531 -4.460938 3.1875 -3.890625 C 3.21875 -3.398438 3.414062 -3.015625 3.78125 -2.734375 C 4.15625 -2.453125 4.609375 -2.332031 5.140625 -2.375 Z M 5.140625 -2.375 "/></g></g></g><g fill="#ffffff" fill-opacity="1"><g transform="translate(209.974341, 339.519776)"><g/></g></g><g fill="#ffffff" fill-opacity="1"><g transform="translate(220.389716, 337.639678)"><g><path d="M 3.5 -13.859375 C 4.382812 -14.097656 5.304688 -14.148438 6.265625 -14.015625 C 7.222656 -13.890625 8.085938 -13.601562 8.859375 -13.15625 L 7.65625 -10.609375 C 7.15625 -10.984375 6.59375 -11.234375 5.96875 -11.359375 C 5.351562 -11.492188 4.78125 -11.488281 4.25 -11.34375 C 3.300781 -11.082031 2.601562 -10.535156 2.15625 -9.703125 C 1.707031 -8.867188 1.613281 -7.960938 1.875 -6.984375 C 2.144531 -5.984375 2.6875 -5.234375 3.5 -4.734375 C 4.3125 -4.234375 5.191406 -4.113281 6.140625 -4.375 C 6.628906 -4.5 7.113281 -4.757812 7.59375 -5.15625 C 8.070312 -5.5625 8.457031 -6.039062 8.75 -6.59375 L 11.046875 -5.171875 C 10.566406 -4.347656 9.941406 -3.617188 9.171875 -2.984375 C 8.398438 -2.347656 7.582031 -1.910156 6.71875 -1.671875 C 4.914062 -1.179688 3.257812 -1.359375 1.75 -2.203125 C 0.238281 -3.054688 -0.75 -4.351562 -1.21875 -6.09375 C -1.6875 -7.8125 -1.46875 -9.410156 -0.5625 -10.890625 C 0.34375 -12.367188 1.695312 -13.359375 3.5 -13.859375 Z M 3.5 -13.859375 "/></g></g></g><g fill="#ffffff" fill-opacity="1"><g transform="translate(238.51149, 332.317097)"><g><path d="M 7.828125 -5.75 L 2.859375 -3.671875 L 2.890625 -1.21875 L -0.09375 0.03125 L 0.0625 -13.40625 L 3.046875 -14.65625 L 12.609375 -5.265625 L 9.515625 -3.984375 Z M 6.0625 -7.578125 L 2.671875 -11.109375 L 2.765625 -6.203125 Z M 6.0625 -7.578125 "/></g></g></g><g fill="#ffffff" fill-opacity="1"><g transform="translate(257.039151, 324.068647)"><g><path d="M 8 -4.6875 L 2.734375 -7.21875 L 2.25 -4.828125 L 3.78125 -2.21875 L 1.0625 -0.625 L -5.171875 -11.28125 L -2.453125 -12.875 L 0.234375 -8.25 L 1.625 -15.265625 L 4.75 -17.09375 L 3.375 -10.359375 L 11.234375 -6.59375 Z M 8 -4.6875 "/></g></g></g><g fill="#ffffff" fill-opacity="1"><g transform="translate(273.911162, 313.63437)"><g><path d="M 2.578125 -14.484375 L -2.59375 -10.484375 L -1.09375 -8.546875 L 3.578125 -12.15625 L 5.09375 -10.203125 L 0.421875 -6.59375 L 1.9375 -4.625 L 7.265625 -8.734375 L 8.78125 -6.78125 L 0.96875 -0.75 L -6.578125 -10.515625 L 1.078125 -16.4375 Z M 2.578125 -14.484375 "/></g></g></g><g fill="#ffffff" fill-opacity="1"><g transform="translate(288.291181, 301.973469)"><g><path d="M -4.53125 -13.09375 C -3.21875 -14.382812 -1.742188 -15.191406 -0.109375 -15.515625 L 0.78125 -12.96875 C 0.0625 -12.769531 -0.644531 -12.492188 -1.34375 -12.140625 C -2.050781 -11.796875 -2.582031 -11.453125 -2.9375 -11.109375 C -3.582031 -10.460938 -3.691406 -9.921875 -3.265625 -9.484375 C -2.992188 -9.210938 -2.617188 -9.148438 -2.140625 -9.296875 C -1.660156 -9.453125 -1.128906 -9.691406 -0.546875 -10.015625 C 0.0234375 -10.347656 0.625 -10.65625 1.25 -10.9375 C 1.875 -11.21875 2.535156 -11.320312 3.234375 -11.25 C 3.929688 -11.175781 4.570312 -10.847656 5.15625 -10.265625 C 5.988281 -9.421875 6.304688 -8.4375 6.109375 -7.3125 C 5.921875 -6.1875 5.316406 -5.113281 4.296875 -4.09375 C 3.566406 -3.375 2.722656 -2.785156 1.765625 -2.328125 C 0.804688 -1.878906 -0.148438 -1.613281 -1.109375 -1.53125 L -1.9375 -4.109375 C -1.101562 -4.160156 -0.269531 -4.363281 0.5625 -4.71875 C 1.40625 -5.070312 2.0625 -5.484375 2.53125 -5.953125 C 2.882812 -6.296875 3.097656 -6.628906 3.171875 -6.953125 C 3.253906 -7.285156 3.171875 -7.578125 2.921875 -7.828125 C 2.679688 -8.066406 2.363281 -8.15625 1.96875 -8.09375 C 1.582031 -8.03125 1.175781 -7.867188 0.75 -7.609375 C 0.332031 -7.347656 -0.140625 -7.082031 -0.671875 -6.8125 C -1.210938 -6.550781 -1.734375 -6.332031 -2.234375 -6.15625 C -2.734375 -5.976562 -3.269531 -5.945312 -3.84375 -6.0625 C -4.414062 -6.1875 -4.941406 -6.492188 -5.421875 -6.984375 C -6.210938 -7.773438 -6.523438 -8.726562 -6.359375 -9.84375 C -6.191406 -10.957031 -5.582031 -12.039062 -4.53125 -13.09375 Z M -4.53125 -13.09375 "/></g></g></g></svg>